<svg id="AnimLogo" viewBox="-100 -4 114 24" height="480" xmlns="http://www.w3.org/2000/svg">
<path id="LongLogoBG" fill="#fff" d="M-100 -4 V20 H110 V-4Z"/>
<animate id="shorten" dur="1.5s" begin="expand.end+8s" fill="freeze"/>
<animate id="expand" dur="1.5s" begin="8s; shorten.end+8s" fill="freeze"/>
<animate attributeName="viewBox" dur="1.5s" begin="expand.begin" fill="freeze" calcMode="spline" keySplines="0.5 0 0 1" keyTimes="0; 1" from="-100 -4 114 24" to="-4 -4 114 24"/>
<animate attributeName="viewBox" dur="1.5s" begin="shorten.begin" fill="freeze" calcMode="spline" keySplines="0.5 0 0 1" keyTimes="0; 1" from="-4 -4 114 24" to="-100 -4 114 24"/>
<path id="fige1" fill="#000" d="M10 8V2C8 2 5 2 4 2 3 2 0 2-2 2V8H0V4H3V8H5V4H8V8Z">
<animate attributeName="d" dur="1.5s" begin="expand.begin" fill="freeze" calcMode="spline" keySplines="0.5 0 0 1" keyTimes="0; 1" from="M10 8V2C8 2 5 2 4 2 3 2 0 2-2 2V8H0V4H3V8H5V4H8V8Z" to="M10 9V7C10 4 8 2 5 2 2 2 0 4 0 7V9H2V8H4V9H6V8H8V9Z"/>
<animate attributeName="d" dur="1.5s" begin="shorten.begin" fill="freeze" calcMode="spline" keySplines="0.5 0 0 1" keyTimes="0; 1" from="M10 9V7C10 4 8 2 5 2 2 2 0 4 0 7V9H2V8H4V9H6V8H8V9Z" to="M10 8V2C8 2 5 2 4 2 3 2 0 2-2 2V8H0V4H3V8H5V4H8V8Z"/>
</path>
<path id="fige2" fill="#000" d="M-2 8V10C-2 11-2 13-2 14 4 14 6 14 10 14L10 10C8 10 4 10 2 10 1 10 1 10 0 10V10H10V8Z">
<animate attributeName="d" dur="1.5s" begin="expand.begin" fill="freeze" calcMode="spline" keySplines="0.5 0 0 1" keyTimes="0; 1" from="M-2 8V10C-2 11-2 13-2 14 4 14 6 14 10 14L10 10C8 10 4 10 2 10 1 10 1 10 0 10V10H10V8Z" to="M0 7V11C0 14 2 16 5 16 8 16 10 14 10 11L7 11C7 12 6.5 13 5 13 3.5 13 3 12 3 11V9.5H10V7Z"/>
<animate attributeName="d" dur="1.5s" begin="shorten.begin" fill="freeze" calcMode="spline" keySplines="0.5 0 0 1" keyTimes="0; 1" from="M0 7V11C0 14 2 16 5 16 8 16 10 14 10 11L7 11C7 12 6.5 13 5 13 3.5 13 3 12 3 11V9.5H10V7Z" to="M-2 8V10C-2 11-2 13-2 14 4 14 6 14 10 14L10 10C8 10 4 10 2 10 1 10 1 10 0 10V10H10V8Z"/>
</path>
<path id="LongLogoEE" fill="#000" d="M7 7V5H6V7ZM2 7V5H1V7Z"/>
<path id="LongLogoK1" fill="#000" d="M12 0V16H15V9.5H16.5L20 16H23L19 8 23 0H20L16.5 6.5H15V0Z"/>
<path id="LongLogoU1" fill="#666" d="M24 0V11A5 5 0 0034 11V0H31V11A2 2 0 0127 11V0Z"/>
<path id="LongLogoN1" fill="#666" d="M36 16V5A5 5 90 0146 5V16H43V5A2 2 90 0039 5V16Z"/>
<path id="LongLogoA1" fill="#666" d="M48 16V5A5 5 90 0158 5V16H55V5A2 2 90 0051 5V7H55V10H51V16Z"/>
<path id="LongLogoZ1" fill="#666" d="M60 0H70V3L63.5 13H70V16H60V13L66.5 3H60Z"/>
<path id="LongLogoA2" fill="#666" d="M72 16V5A5 5 0 0182 5V16H79V5A2 2 0 0075 5V7H79V10H75V16Z"/>
<path id="LongLogoN2" fill="#666" d="M84 16V5A5 5 90 0194 5V16H91V5A2 2 90 0087 5V16Z"/>
<path id="LongLogoU2" fill="#666" d="M96 0V11A5 5 90 00106 11V0H103V11A2 2 90 0199 11V0Z"/>
<path id="LongLogoGrid" stroke="#999" stroke-width="0.1" d="M-100 -2H-4M-100 0H-4M-100 2H-4M-100 4H-4M-100 6H-4M-100 8H-4M-100 10H-4M-100 12H-4M-100 14H-4M-100 16H-4M-100 18H-4 M-98 -4V24M-96 -4V24M-94 -4V24M-92 -4V24M-90 -4V24M-88 -4V24M-86 -4V24M-84 -4V24M-82 -4V24M-80 -4V24M-78 -4V24M-76 -4V24M-74 -4V24M-72 -4V24M-70 -4V24M-68 -4V24M-66 -4V24M-64 -4V24 M-62 -4V24M-60 -4V24M-58 -4V24M-56 -4V24M-54 -4V24M-52 -4V24M-50 -4V24M-48 -4V24M-46 -4V24M-44 -4V24M-42 -4V24M-40 -4V24M-38 -4V24M-36 -4V24M-34 -4V24M-32 -4V24M-30 -4V24M-28 -4V24M-26 -4V24M-24 -4V24M-22 -4V24M-20 -4V24M-18 -4V24M-16 -4V24M-14 -4V24M-12 -4V24M-10 -4V24M-8 -4V24M-6 -4V24" />
<path id="LongLogoRect" fill="#7cd" d="M-100 0H-90V6H-100Z" />
<path id="LongLogoTrig" fill="#687" d="M-88-2L-76 19L-76-2Z" />
<path id="LongLogoCirc" fill="#9ac" d="M-94 10A2 2 90 00-94 38 2 2 90 00-94 10Z" />
<path id="LongLogoDots" fill="#000" d="M-70 -2V0H-68V-2ZM-66 -2V0H-64V-2ZM-62 -2V0H-60V-2Z" />
<path id="LongLogoInes" fill="#aaa" d="M-70 2V10H-68V2ZM-66 2V10H-64V2ZM-62 2V10H-60V2Z" />
<path id="LongLogoTabl" fill="#dca" d="M-74 12V18H-32V12Z" />
<path id="LongLogoPlan" fill="#986" d="M-72 14V16H-34V14Z" />
<path id="LongLogoPalm" fill="#bb7" d="M-11 17A1 1 0 00-8 17 1 1 0 00-11 17" />
<path id="LongLogoHand" fill="#caa" d="M-30 20-25 8H-22L-27 20Z" />
<path id="LongLogoTrap" fill="#faa" d="M-25 20-20 8H-10L-15 20Z" />
<path id="LongLogoHead" fill="#da8" d="M-11-2H-16Q-20-2-20 2V2Q-20 6-16 6H-12Q-8 6-8 2-8-2-12-2Z" />
<path id="LongLogoSign" stroke="#000" stroke-width="0.5" stroke-linecap="round" fill="none" d="M-55 9C-57 5-54 1-52 3S-58 13-48 7-48 0-46 3-35 8-43 9-42 2-39 3-36 18-25 0" />
</svg>
